<svg id="Layer_3" enable-background="new 0 0 64 64" height="512" viewBox="0 0 64 64" width="512" xmlns="http://www.w3.org/2000/svg"><g><path d="m44.939 44.402-7.939-3.402-5 4-5-4-7.939 3.402c-3.677 1.576-6.061 5.192-6.061 9.192v3.406h38v-3.406c0-4-2.384-7.616-6.061-9.192z" fill="#3b5892"/><path d="m44 16v10c0 6.627-5.373 12-12 12-6.627 0-12-5.373-12-12v-10l5 5 6-4v4l6-5v5z" fill="#fadcb6"/><ellipse cx="32" cy="33" fill="#bba589" rx="3" ry="2"/><g fill="#fadcb6"><path d="m13 57h24l3-3h3l1 3h2v5h-31c-1.105 0-2-.895-2-2z"/><path d="m32 38c-1.787 0-3.476-.401-5-1.102v4.102l5 4 5-4v-4.102c-1.524.701-3.213 1.102-5 1.102z"/><path d="m20 26v-5h-1c-1.657 0-3 1.343-3 3s1.343 3 3 3h1.05c-.027-.331-.05-.662-.05-1z"/></g><path d="m47.943 9.357c-.613-1.532-1.697-2.829-3.096-3.703-3.821-2.388-8.236-3.654-12.742-3.654h-.21c-4.506 0-8.921 1.266-12.742 3.654-1.399.874-2.483 2.171-3.096 3.703-.682 1.706-.738 3.599-.157 5.343l2.155 6.466c.299-.099.613-.166.945-.166h1v-5l5 5 6-4v4l6-5v5l7-5v5h1c.332 0 .646.067.945.167l2.155-6.467c.581-1.743.525-3.636-.157-5.343z" fill="#686868"/><path d="m45 21h-1v5c0 .338-.023.669-.05 1h1.05c1.657 0 3-1.343 3-3s-1.343-3-3-3z" fill="#fadcb6"/><path d="m28 49 4-4-5-4-2.869 1.229z" fill="#78a0d4"/><path d="m39.869 42.229-2.869-1.229-5 4 4 4z" fill="#78a0d4"/><g><path d="m25.555 27.832-1.109-1.664 1.751-1.168-1.752-1.168 1.109-1.664 3 2c.279.186.446.498.446.832s-.167.646-.445.832z" fill="#bba589"/></g><g><path d="m38.445 27.832-3-2c-.278-.186-.445-.498-.445-.832s.167-.646.445-.832l3-2 1.109 1.664-1.751 1.168 1.752 1.168z" fill="#bba589"/></g><path d="m51 57v3c0 1.105-.895 2-2 2h-3v-5z" fill="#fcead3"/><path d="m36 35h14c1.105 0 2-.895 2-2 0-1.105-.895-2-2-2h-14l-3 1v2z" fill="#b5b5b5"/><g><path d="m40.287 36h9.713c1.654 0 3-1.346 3-3s-1.346-3-3-3h-5.633c.211-.653.357-1.322.462-2h.171c2.206 0 4-1.794 4-4 0-1.404-.731-2.637-1.829-3.351l1.878-5.633c.655-1.965.592-4.107-.178-6.03-.696-1.741-1.905-3.186-3.494-4.18-3.984-2.49-8.573-3.806-13.272-3.806h-.21c-4.699 0-9.288 1.316-13.271 3.806-1.59.994-2.798 2.439-3.495 4.18-.77 1.923-.833 4.065-.178 6.031l1.878 5.633c-1.098.713-1.829 1.946-1.829 3.35 0 2.206 1.794 4 4 4h.17c.644 4.144 3.242 7.645 6.83 9.521v2.82l-7.333 3.143c-4.05 1.735-6.667 5.704-6.667 10.11v3.406 3c0 1.654 1.346 3 3 3h31 3c1.654 0 3-1.346 3-3v-3-3.406c0-4.406-2.617-8.375-6.667-10.11l-7.333-3.143v-2.82c.81-.422 1.576-.931 2.287-1.521zm10.713-3c0 .551-.449 1-1 1h-13.838l-2.162-.721v-.559l2.162-.72h13.838c.551 0 1 .449 1 1zm-19 1c-1.221 0-2-.592-2-1s.779-1 2-1zm13-8v-4c1.103 0 2 .897 2 2s-.897 2-2 2zm-28-2c0-1.103.897-2 2-2v4c-1.103 0-2-.897-2-2zm2.617-8.924c-.373.155-.617.52-.617.924v4c-.092 0-.179.021-.27.027l-1.881-5.643c-.506-1.518-.457-3.171.137-4.655.538-1.344 1.471-2.46 2.698-3.227 3.665-2.291 7.888-3.502 12.211-3.502h.21c4.323 0 8.546 1.211 12.212 3.502 1.227.767 2.16 1.882 2.698 3.227.594 1.484.643 3.138.137 4.655l-1.881 5.643c-.092-.006-.179-.027-.271-.027v-4c0-.375-.209-.718-.542-.889-.332-.171-.734-.142-1.039.075l-5.419 3.871v-3.057c0-.388-.225-.741-.576-.906-.352-.163-.766-.111-1.064.138l-4.36 3.633v-1.865c0-.369-.203-.708-.528-.882-.325-.175-.72-.155-1.026.05l-5.318 3.545-4.42-4.42c-.288-.286-.717-.372-1.091-.217zm1.383 10.924v-7.586l3.293 3.293c.337.338.866.39 1.262.125l4.445-2.963v2.131c0 .388.225.741.576.906.352.163.766.111 1.064-.138l4.36-3.633v2.865c0 .375.209.718.542.889.332.171.734.142 1.039-.075l5.419-3.871v8.057c0 1.387-.268 2.727-.766 4h-6.234c-.107 0-.214.017-.316.051l-1.423.474c-.66-.334-1.447-.525-2.261-.525-2.243 0-4 1.318-4 3s1.757 3 4 3c.814 0 1.601-.191 2.261-.526l1.423.474c.102.035.209.052.316.052h.565c-1.422.649-2.974 1-4.565 1-6.065 0-11-4.935-11-11zm16.157 16.155 1.288.552-2.663 4.66-2.284-2.284zm-10.314 0 3.66 2.928-2.284 2.284-2.663-4.66zm18.157 18.845h-30c-.551 0-1-.449-1-1v-2h23c.265 0 .52-.105.707-.293l2.707-2.707h1.865l.772 2.316c.136.409.518.684.949.684h1zm4 0h-2v-3h3v2c0 .551-.449 1-1 1zm1-7.406v2.406h-4-1.279l-.721-2.163v-1.837h-2v1h-2c-.265 0-.52.105-.707.293l-2.707 2.707h-14.586v-4h-2v4h-6v-2.406c0-3.605 2.141-6.852 5.455-8.272l4.25-1.822 3.426 5.996c.155.271.427.454.735.495.046.006.09.009.134.009.263 0 .519-.104.707-.293l3.293-3.293 3.293 3.293c.188.189.443.293.707.293.044 0 .088-.003.133-.009.309-.042.581-.225.735-.495l3.426-5.996 4.25 1.822c3.315 1.42 5.456 4.667 5.456 8.272zm-14-13.074-4 3.2-4-3.2v-2.156c1.261.409 2.604.636 4 .636 1.372 0 2.717-.228 4-.643z"/><path d="m29 25c0-.334-.167-.646-.445-.832l-3-2-1.109 1.664 1.751 1.168-1.752 1.168 1.109 1.664 3-2c.279-.186.446-.498.446-.832z"/><path d="m35.445 25.832 3 2 1.109-1.664-1.751-1.168 1.752-1.168-1.109-1.664-3 2c-.279.186-.446.498-.446.832s.167.646.445.832z"/><path d="m57 48c0-.912-.355-1.77-1-2.414l-1.293-1.293-1.414 1.414 1.293 1.293c.263.263.414.628.414 1s-.151.737-.414 1l-1.293 1.293c-.391.391-.391 1.023 0 1.414l1.293 1.293c.263.263.414.628.414 1s-.151.737-.414 1l-1.293 1.293 1.414 1.414 1.293-1.293c.645-.645 1-1.502 1-2.414s-.355-1.77-1-2.414l-.586-.586.586-.586c.645-.644 1-1.502 1-2.414z"/><path d="m61.414 45 .586-.586c.645-.645 1-1.502 1-2.414s-.355-1.77-1-2.414l-1.293-1.293-1.414 1.414 1.293 1.293c.263.263.414.628.414 1s-.151.737-.414 1l-1.293 1.293c-.391.391-.391 1.023 0 1.414l1.293 1.293c.263.263.414.628.414 1s-.151.737-.414 1l-1.293 1.293 1.414 1.414 1.293-1.293c.645-.645 1-1.502 1-2.414s-.355-1.77-1-2.414z"/><path d="m9.414 49c-.263-.263-.414-.628-.414-1s.151-.737.414-1l1.293-1.293-1.414-1.414-1.293 1.293c-.645.644-1 1.502-1 2.414s.355 1.77 1 2.414l.586.586-.586.586c-.645.644-1 1.502-1 2.414s.355 1.77 1 2.414l1.293 1.293 1.414-1.414-1.293-1.293c-.263-.263-.414-.628-.414-1s.151-.737.414-1l1.293-1.293c.391-.391.391-1.023 0-1.414z"/><path d="m3.414 43c-.263-.263-.414-.628-.414-1s.151-.737.414-1l1.293-1.293-1.414-1.414-1.293 1.293c-.645.644-1 1.502-1 2.414s.355 1.77 1 2.414l.586.586-.586.586c-.645.644-1 1.502-1 2.414s.355 1.77 1 2.414l1.293 1.293 1.414-1.414-1.293-1.293c-.263-.263-.414-.628-.414-1s.151-.737.414-1l1.293-1.293c.391-.391.391-1.023 0-1.414z"/></g></g></svg>