<svg id="Capa_1" enable-background="new 0 0 511.486 511.486" height="512" viewBox="0 0 511.486 511.486" width="512" xmlns="http://www.w3.org/2000/svg"><g><path d="m284.17 46.3c0-11.957-4.544-23.467-12.713-32.198-8.233-8.802-22.195-8.802-30.429 0-8.168 8.732-12.713 20.242-12.713 32.198v41.227s55.638-.216 55.854 0 .001-41.227.001-41.227z" fill="#b5adb6"/><path d="m308.023 109.61h-104.56v-31.51c0-6.989 5.666-12.655 12.655-12.655h79.25c6.989 0 12.655 5.666 12.655 12.655z" fill="#cbc4cc"/><path d="m397.106 456.424v38.165c0 5.19 4.207 9.397 9.397 9.397h21.955c3.649 0 6.968-2.112 8.513-5.418l19.697-42.144 15.264-37.062-77.139-3.307z" fill="#a79ba7"/><path d="m115.38 494.589c0 5.19-4.207 9.397-9.397 9.397h-21.955c-3.649 0-6.968-2.112-8.513-5.418l-19.697-42.144-15.564-37.062h73.393z" fill="#a79ba7"/><g><path d="m455.669 97.61h-399.851c-15.247 0-27.608 12.36-27.608 27.608v297.206c1.644-.607 2.769-1.02 2.769-1.02l37.488 18.828 62.814 15.162-.561 1.032h324.949c15.247 0 27.608-12.361 27.608-27.608v-303.6c0-15.248-12.361-27.608-27.608-27.608z" fill="#b5adb6"/><path d="m450.627 151.639c-3.782-10.451-12.472-18.402-23.244-21.27-56.705-15.102-114.341-22.759-171.308-22.759-40.339 0-81.118 3.846-121.765 11.451-9.936 1.859-15.281-11.22-6.872-16.829 4.377-2.92 9.636-4.622 15.293-4.622h-86.913c-15.247 0-27.608 12.361-27.608 27.608v303.599c0 15.247 12.361 27.608 27.608 27.608h86.915c-5.625 0-10.855-1.682-15.217-4.571-8.43-5.583-3.067-18.692 6.872-16.831 40.461 7.574 81.101 11.403 121.356 11.403 56.967 0 114.706-7.657 171.615-22.759 10.788-2.863 19.487-10.818 23.272-21.278 30.104-83.194 30.103-167.558-.004-250.75z" fill="#a79ba7"/><path d="m79.662 395.582c-28.602-79.041-28.603-158.081-.002-237.122 1.563-4.32 5.166-7.581 9.608-8.756 111.193-29.402 222.184-29.514 332.969-.009 4.431 1.18 8.024 4.438 9.584 8.749 28.606 79.046 28.607 158.091.003 237.137-1.562 4.316-5.16 7.575-9.596 8.753-110.99 29.453-221.98 29.453-332.969 0-4.437-1.177-8.035-4.436-9.597-8.752z" fill="#d5e3f4"/><path d="m190.28 411.765c-24.512-5.294-44.054-23.858-50.466-48.102-15.272-57.75-15.276-115.5-.011-173.249 6.414-24.266 25.983-42.838 50.52-48.125 33.621-7.245 67.223-11.801 100.807-13.678-67.213-3.76-134.5 3.282-201.862 21.094-4.439 1.174-8.042 4.428-9.605 8.745-28.606 79.048-28.605 158.096.003 237.143 1.561 4.313 5.159 7.565 9.593 8.742 67.186 17.829 134.372 24.845 201.558 21.089-33.512-1.874-67.025-6.421-100.537-13.659z" fill="#b3ceec"/><path d="m388.237 335.658h-264.988c-10.326 0-18.697-8.371-18.697-18.697v-91.065c0-10.326 8.371-18.697 18.697-18.697h264.987c10.326 0 18.697 8.371 18.697 18.697v91.065c.001 10.326-8.37 18.697-18.696 18.697z" fill="#f9f3f1"/><path d="m135.801 207.199h-12.551c-10.326 0-18.697 8.371-18.697 18.697v91.065c0 10.326 8.371 18.697 18.697 18.697h10.362c-7.664-42.819-6.936-85.639 2.189-128.459z" fill="#f3eae6"/><g fill="#b5adb6"><circle cx="342.658" cy="25.83" r="18.33"/><circle cx="169.829" cy="25.83" r="18.33"/></g></g><g><path d="m455.668 90.11h-140.145v-12.01c0-11.113-9.042-20.155-20.155-20.155h-3.698v-6.425l29.745-11.019c4.667 6.736 12.446 11.159 21.242 11.159 14.243 0 25.83-11.587 25.83-25.83s-11.587-25.83-25.829-25.83-25.83 11.587-25.83 25.83c0 .124.008.247.009.371l-26.163 9.691c-1.934-10.02-6.645-19.33-13.74-26.914-5.336-5.706-12.878-8.978-20.691-8.978s-15.354 3.272-20.691 8.978c-7.094 7.584-11.806 16.894-13.74 26.914l-26.163-9.691c.002-.124.009-.246.009-.371 0-14.243-11.587-25.83-25.83-25.83s-25.83 11.587-25.83 25.83 11.587 25.83 25.83 25.83c8.797 0 16.576-4.423 21.242-11.159l29.745 11.019v6.425h-4.698c-11.114 0-20.155 9.042-20.155 20.155v12.01h-66.997c-4.142 0-7.5 3.358-7.5 7.5s3.358 7.5 7.5 7.5h326.703c11.087 0 20.108 9.021 20.108 20.108v303.599c0 11.087-9.021 20.108-20.108 20.108h-399.85c-11.087 0-20.108-9.021-20.108-20.108v-303.599c0-11.087 9.021-20.108 20.108-20.108h41.186c4.142 0 7.5-3.358 7.5-7.5s-3.358-7.5-7.5-7.5h-41.186c-19.358 0-35.108 15.75-35.108 35.108v303.599c0 17.682 13.142 32.345 30.169 34.754l17.842 38.173c2.766 5.919 8.774 9.743 15.308 9.743h21.955c9.317 0 16.897-7.58 16.897-16.897v-30.665h266.726v30.665c0 9.317 7.58 16.897 16.897 16.897h21.955c6.533 0 12.542-3.824 15.308-9.743l17.923-38.346c16.499-2.864 29.088-17.276 29.088-34.581v-303.599c-.002-19.359-15.751-35.108-35.11-35.108zm-113.01-75.11c5.972 0 10.83 4.858 10.83 10.83s-4.858 10.83-10.83 10.83-10.83-4.858-10.83-10.83 4.858-10.83 10.83-10.83zm-172.829 21.66c-5.972 0-10.83-4.858-10.83-10.83s4.858-10.83 10.83-10.83 10.83 4.858 10.83 10.83-4.859 10.83-10.83 10.83zm65.987 9.64c0-10.091 3.796-19.706 10.689-27.075 2.55-2.725 6.008-4.225 9.738-4.225s7.188 1.5 9.737 4.225c6.893 7.369 10.689 16.984 10.689 27.075v11.645h-40.854v-11.645zm-24.853 31.8c0-2.842 2.313-5.155 5.155-5.155h79.25c2.843 0 5.155 2.313 5.155 5.155v12.01h-89.561v-12.01zm-103.083 416.489c0 1.046-.851 1.897-1.897 1.897h-21.955c-.733 0-1.408-.429-1.719-1.094l-14.708-31.468h40.278v30.665zm322.297.804c-.311.665-.985 1.094-1.719 1.094h-21.955c-1.046 0-1.897-.851-1.897-1.897v-30.665h40.278z"/><path d="m363.904 129.301c-93.86-15.999-189.307-10.927-283.687 15.078-2.299.633-4.16 2.322-5.012 4.549-32.531 84.993-32.531 171.184 0 256.177.852 2.225 2.709 3.913 5.005 4.547 58.226 16.105 117.283 24.271 175.533 24.271s117.307-8.166 175.533-24.271c2.296-.635 4.153-2.323 5.005-4.547 32.531-84.993 32.531-171.184 0-256.177-.851-2.222-2.705-3.909-4.998-4.545-11.54-3.204-23.459-6.172-35.428-8.82-4.043-.896-8.048 1.659-8.943 5.703s1.658 8.048 5.703 8.943c10.448 2.312 20.854 4.872 30.992 7.622 14.713 39.599 22.169 79.676 22.169 119.186 0 39.507-7.457 79.586-22.168 119.182-55.732 15.081-112.189 22.725-167.865 22.725s-112.133-7.644-167.865-22.725c-14.711-39.596-22.168-79.675-22.168-119.182s7.455-79.582 22.167-119.178c91.049-24.546 183.042-29.173 273.507-13.75 4.088.695 7.958-2.05 8.654-6.133s-2.05-7.958-6.134-8.655z"/><path d="m184.029 303.734c.669 0 1.347-.09 2.015-.276 3.242-.904 5.485-3.858 5.485-7.224v-50.392c0-4.142-3.358-7.5-7.5-7.5s-7.5 3.358-7.5 7.5v23.505l-16.569-27.387c-1.742-2.879-5.189-4.247-8.432-3.342-3.242.904-5.485 3.858-5.485 7.224v50.392c0 4.142 3.358 7.5 7.5 7.5s7.5-3.358 7.5-7.5v-23.505l16.569 27.388c1.383 2.285 3.84 3.618 6.417 3.617z"/><path d="m239.468 253.342c4.142 0 7.5-3.358 7.5-7.5s-3.358-7.5-7.5-7.5h-25.08c-6.521 0-11.827 5.305-11.827 11.826v41.739c0 6.521 5.306 11.827 11.827 11.827h25.08c4.142 0 7.5-3.358 7.5-7.5s-3.358-7.5-7.5-7.5h-21.906v-10.196h7.203c4.142 0 7.5-3.358 7.5-7.5s-3.358-7.5-7.5-7.5h-7.203v-10.196z"/><path d="m270.484 303.651c3.265.49 6.465-1.213 7.884-4.192l4.461-9.368 3.939 10.335c1.117 2.93 3.922 4.83 7.004 4.83.263 0 .527-.014.793-.042 3.384-.358 6.103-2.95 6.623-6.313l8.022-51.913c.632-4.094-2.173-7.925-6.267-8.558s-7.925 2.173-8.558 6.267l-3.694 23.905-.089-.235c-1.069-2.805-3.708-4.703-6.707-4.823-3.019-.121-5.782 1.56-7.073 4.27l-1.408 2.957-3.846-26.024c-.605-4.098-4.417-6.926-8.516-6.323-4.098.605-6.929 4.418-6.323 8.516l7.447 50.392c.484 3.264 3.044 5.83 6.308 6.319z"/><path d="m327.105 290.255c-4.142 0-7.5 3.358-7.5 7.5s3.358 7.5 7.5 7.5h23.067c7.869 0 14.271-6.402 14.271-14.271v-13.175c0-7.869-6.402-14.271-14.271-14.271h-15.567v-10.196h22.338c4.142 0 7.5-3.358 7.5-7.5s-3.358-7.5-7.5-7.5h-23.066c-7.869 0-14.271 6.402-14.271 14.271v11.654c0 7.869 6.402 14.271 14.271 14.271h15.566v11.717z"/><path d="m184.767 343.159h203.47c14.445 0 26.197-11.752 26.197-26.197v-91.065c0-14.445-11.752-26.197-26.197-26.197h-264.987c-14.445 0-26.197 11.752-26.197 26.197v91.065c0 14.445 11.752 26.197 26.197 26.197h29.555c4.142 0 7.5-3.358 7.5-7.5s-3.358-7.5-7.5-7.5h-29.555c-6.174 0-11.197-5.023-11.197-11.197v-91.065c0-6.174 5.023-11.197 11.197-11.197h264.987c6.174 0 11.197 5.023 11.197 11.197v91.065c0 6.174-5.023 11.197-11.197 11.197h-203.47c-4.142 0-7.5 3.358-7.5 7.5s3.358 7.5 7.5 7.5z"/><path d="m452.887 135.11c4.142 0 7.5-3.358 7.5-7.5s-3.358-7.5-7.5-7.5h-4.898c-4.142 0-7.5 3.358-7.5 7.5s3.358 7.5 7.5 7.5z"/><path d="m69.736 135.11c4.142 0 7.5-3.358 7.5-7.5s-3.358-7.5-7.5-7.5h-4.898c-4.142 0-7.5 3.358-7.5 7.5s3.358 7.5 7.5 7.5z"/><path d="m447.989 422.934c-4.142 0-7.5 3.358-7.5 7.5s3.358 7.5 7.5 7.5h4.898c4.142 0 7.5-3.358 7.5-7.5s-3.358-7.5-7.5-7.5z"/><path d="m69.736 422.934h-4.898c-4.142 0-7.5 3.358-7.5 7.5s3.358 7.5 7.5 7.5h4.898c4.142 0 7.5-3.358 7.5-7.5s-3.358-7.5-7.5-7.5z"/></g></g></svg>