<svg height="512" viewBox="0 0 57 60" width="512" xmlns="http://www.w3.org/2000/svg"><g id="Page-1" fill="none" fill-rule="evenodd"><g id="079---Throat-Infection" fill-rule="nonzero"><g id="Icons" transform="translate(1 1)"><path id="Shape" d="m55 23c-.0066221 5.0335873-3.1539807 9.5280681-7.8818898 11.2554708s-10.0313969.320548-13.2814567-3.5231684c-3.2500599-3.8437164-3.7558539-9.307268-1.2666535-13.6823024.6219198-1.0786391 1.4041882-2.0564746 2.32-2.9 3.508449-3.2170314 8.5867379-4.0561701 12.9435967-2.1388056 4.3568588 1.9173646 7.1685245 6.228711 7.1664033 10.9888056z" fill="#02a8f3"/><path id="Shape" d="m43 11c-.5016004.0019005-1.0025863.0352996-1.5.1 6.0121981.7389866 10.5286744 5.8465387 10.5263838 11.9039823-.0022907 6.0574435-4.5226285 11.1615783-10.5353838 11.8960177 4.4393881.576571 8.8306171-1.3659125 11.3903342-5.038575s2.8622834-8.4648006.7848218-12.4302456c-2.0774617-3.9654451-6.1895037-6.4448088-10.666156-6.4311794z" fill="#0377bb"/><circle id="Oval" cx="43" cy="23" fill="#ffdb00" r="6"/><path id="Shape" d="m32.59 28.98c-1.3205556 2.979441-3.6166621 5.4201563-6.51 6.92h-.01c-1.586803.7402247-3.3191094 1.1160702-5.07 1.1-1.7493994.0120354-3.4801197-.3600524-5.07-1.09v-.01h-.01c-5.09-2.41-6.92-7.9-6.92-7.9-2.209139 0-4-1.790861-4-4s1.790861-4 4-4v-5.68c1.9161294 1.2088889 4.1914742 1.7176617 6.44 1.44 2.3080268-.2168789 4.5647453-.8114634 6.68-1.76 4.68-2.39 8.46-.51 10.45 3.05-2.1004473 3.7011985-2.0928451 8.2358649.02 11.93z" fill="#ffdfb1"/><path id="Shape" d="m31 23c-.0050545-2.0863816.5362255-4.1377296 1.57-5.95-1.619-2.9-4.423-4.68-7.932-3.957 2.1369226.5476187 3.9341929 1.9895891 4.932 3.957-2.1004473 3.7011985-2.0928451 8.2358649.02 11.93-1.3205556 2.979441-3.6166621 5.4201563-6.51 6.92h-.01c-1.1272766.5280608-2.3330837.8688618-3.57 1.009.4977604.0599706.9986404.0903573 1.5.091 1.7508906.0160702 3.483197-.3597753 5.07-1.1h.01c2.8933379-1.4998437 5.1894444-3.940559 6.51-6.92-1.04483-1.8195778-1.5931416-3.881781-1.59-5.98z" fill="#dec39b"/><path id="Shape" d="m28 45c0 3.8659932-3.1340068 7-7 7s-7-3.1340068-7-7c.5556115-.3956234 1.0595272-.8592258 1.5-1.38.9167282-.9885153 1.4488914-2.2728026 1.5-3.62.0804735-1.4417482-.2937968-2.8723702-1.07-4.09 1.5898803.7299476 3.3206006 1.1020354 5.07 1.09 1.7508906.0160702 3.483197-.3597753 5.07-1.1-.7774244 1.2208051-1.1517096 2.6549819-1.07 4.1 0 3 3 5 3 5z" fill="#ffdfb1"/><path id="Shape" d="m25 40c-.0817096-1.4450181.2925756-2.8791949 1.07-4.1-1.1186377.5231626-2.3143182.8625184-3.541 1.005-.3744897.9878403-.5541302 2.0388563-.529 3.095 0 3 3 5 3 5-.0006562 3.2874693-2.2888951 6.1315423-5.5 6.836.4926918.1081794.9955723.163161 1.5.164 3.8659932 0 7-3.1340068 7-7 0 0-3-2-3-5z" fill="#dec39b"/><path id="Shape" d="m42 56c-.0081672 1.1011688-.8988312 1.9918328-2 2h-38c-1.10320187-.0032948-1.9967052-.8967981-2-2-.00159287-2.9178694 1.15682085-5.716688 3.22006641-7.7799336 2.06324555-2.0632455 4.86206418-3.2216593 7.77993359-3.2200664h3c-.0000001 2.5008592 1.3341924 4.8117484 3.5 6.0621779 2.1658075 1.2504296 4.8341925 1.2504296 7 0 2.1658076-1.2504295 3.5000001-3.5613187 3.5-6.0621779h3c2.9178694-.0015929 5.716688 1.1568209 7.7799336 3.2200664 2.0632455 2.0632456 3.2216593 4.8620642 3.2200664 7.7799336z" fill="#f34335"/><path id="Shape" d="m31 45-3-.0000016c2.9178694-.0015913 5.716688 1.1568225 7.7799336 3.220068 2.0632455 2.0632456 3.2216593 4.8620642 3.2200664 7.7799336-.0081672 1.1011688-.8988312 1.9918328-2 2h3c1.1011688-.0081672 1.9918328-.8988312 2-2 .0015929-2.9178694-1.1568209-5.716688-3.2200664-7.7799336-2.0632456-2.0632455-4.8620642-3.2216593-7.7799336-3.2200664z" fill="#c71e1e"/><path id="Shape" d="m34.89 14.15c-.9158118.8435254-1.6980802 1.8213609-2.32 2.9-1.99-3.56-5.77-5.44-10.45-3.05-2.1152547.9485366-4.3719732 1.5431211-6.68 1.76-2.2485258.2776617-4.5238706-.2311111-6.44-1.44-2.25498443-1.3885861-3.85545874-3.6270874-4.44-6.21-.55607223-2.64143974-.73451757-5.34842187-.53-8.04 3.88 8 20.67 1.33 27.14 5.33 3.2 1.98 3.86 5.6 3.72 8.75z" fill="#90562d"/><path id="Shape" d="m31.17 5.4c-2.156-1.333-5.458-1.479-9.045-1.38 2.0987967-.05374601 4.1774499.42078524 6.045 1.38 3.2 1.98 3.86 5.6 3.72 8.75-.3.274-.576.568-.846.871.5998635.6026708 1.1134049 1.2854856 1.526 2.029.6219198-1.0786391 1.4041882-2.0564746 2.32-2.9.14-3.15-.52-6.77-3.72-8.75z" fill="#6d4122"/></g><g id="Icons_copy" fill="#000"><path id="Shape" d="m44 11c-2.5454244-.0016308-5.0346012.7487751-7.155 2.157-.269-3.457-1.673-6.076-4.145-7.607-2.983-1.844-7.593-1.638-12.47-1.419-6.065.27-12.336.55-14.3-3.5-.19582787-.40318565-.63601765-.6268147-1.07711837-.54720708-.44110073.07960763-.77534731.44300303-.81788163.88920708-.21758095 2.79758701-.03269774 5.61192035.549 8.357.59610176 2.6512928 2.17384499 4.978607 4.416 6.514v4.256c-2.38588647.4851589-4.0754584 2.6183381-4.00134655 5.0519241s1.89035902 4.4599998 4.30134655 4.7990759c1.3824453 3.2600199 3.8150242 5.9643324 6.911 7.683.5789185 1.0236802.8527028 2.1916876.789 3.366 0 1.986-1.709 3.511-2.33 4h-2.67c-6.62444695.0071648-11.99283515 5.375553-12 12 0 .7956495.31607052 1.5587112.87867966 2.1213203.56260913.5626092 1.32567087.8786797 2.12132034.8786797h38c1.6568542 0 3-1.3431458 3-3-.0071648-6.624447-5.375553-11.9928352-12-12h-2.67c-.624-.491-2.33-2.016-2.33-4-.060572-1.1562246.2018901-2.3064873.758-3.322 2.497059-1.3102554 4.5625044-3.3138903 5.948-5.77.4495566.5842846.9480218 1.1292509 1.49 1.629l-5.949 6.805c-.237298.2687274-.3125872.643922-.1973349.9833946.1152524.3394726.4034099.5912756.7552681.6599819.3518582.0687064.7135742-.0561976.9480668-.3273765l6-6.869c4.6263123 3.1098259 10.7203639 2.9240248 15.1486288-.4618654 4.428265-3.3858902 6.2049847-9.2181499 4.4165803-14.4978652-1.7884044-5.2797152-6.7438232-8.8315893-12.3182091-8.8292694zm-37.465-2.111c-.3577199-1.64916761-.55133032-3.32969266-.578-5.017 3.266 2.752 8.892 2.5 14.362 2.257 4.363-.195 8.869-.4 11.325 1.122 2.245 1.388 3.329 3.914 3.248 7.489-.4758082.4721386-.9144455.9803161-1.312 1.52-2.617-3.408-6.752-4.278-10.917-2.15-2.0080326.9037964-4.1534865 1.4642442-6.347 1.658-4.5363937.5323771-8.74817575-2.429779-9.781-6.879zm35.465 48.111c0 .5522847-.4477153 1-1 1h-38c-.55228475 0-1-.4477153-1-1 .00606237-5.5203344 4.47966557-9.9939376 10-10h2.069c.5010019 3.9989443 3.9007943 6.9993763 7.931 6.9993763s7.4299981-3.000432 7.931-6.9993763h2.069c5.5203344.0060624 9.9939376 4.4796656 10 10zm-14.02-10.517c-.2548541 3.113504-2.856083 5.5105105-5.98 5.5105105s-5.7251459-2.3970065-5.98-5.5105105c.943-.766 2.98-2.739 2.98-5.483.0065813-.8135445-.0840611-1.6249617-.27-2.417 1.067969.2767804 2.1667479.4168999 3.27.417 1.101988.0002443 2.1997345-.1364701 3.268-.407-.1846068.7888429-.2745741 1.5968706-.268 2.407 0 2.744 2.037 4.717 2.98 5.483zm-5.98-9.483c-8.151 0-10.937-7.979-11.052-8.318-.1366476-.4074034-.5182907-.681961-.948-.682-1.65685421 0-2.99999991-1.3431458-2.99999991-3s1.3431457-3 2.99999991-3c.5522847 0 1-.4477153 1-1v-4.04c1.7525448.7494258 3.6719489 1.0226407 5.564.792 2.425197-.2206827 4.7956149-.8498865 7.011-1.861 3.562-1.818 6.837-.985 8.855 2.21-1.9216581 3.7346467-1.9048693 8.1710046.045 11.891-1.203 2.408-4.308 7.008-10.475 7.008zm22-2c-6.0751322 0-11-4.9248678-11-11s4.9248678-11 11-11 11 4.9248678 11 11c-.0071635 6.0721626-4.9278374 10.9928365-11 11z"/><circle id="Oval" cx="42" cy="23" r="1"/><circle id="Oval" cx="46" cy="25" r="1"/><path id="Shape" d="m50.428 19.134-.936.54c-.3418351-.432835-.733165-.8241649-1.166-1.166l.54-.936c.2716903-.47786.1067416-1.0854205-.3693057-1.3602745-.4760473-.2748541-1.0846885-.1139391-1.3626943.3602745l-.539.933c-.5128028-.2048056-1.048279-.3474874-1.595-.425v-1.08c0-.5522847-.4477153-1-1-1s-1 .4477153-1 1v1.08c-.546721.0775126-1.0821972.2201944-1.595.425l-.539-.933c-.1773616-.3119508-.5082732-.5049532-.8671183-.5057421s-.6906021.1907567-.8693336.5019247c-.1787314.3111679-.1770325.694247.0044519 1.0038174l.54.936c-.432835.3418351-.8241649.733165-1.166 1.166l-.936-.54c-.47786-.2716903-1.0854205-.1067416-1.3602745.3693057-.2748541.4760473-.1139391 1.0846885.3602745 1.3626943l.933.539c-.2048056.5128028-.3474874 1.048279-.425 1.595h-1.08c-.5522847 0-1 .4477153-1 1s.4477153 1 1 1h1.08c.0775126.546721.2201944 1.0821972.425 1.595l-.933.539c-.3119508.1773616-.5049532.5082732-.5057421.8671183s.1907567.6906021.5019247.8693336c.3111679.1787314.694247.1770325 1.0038174-.0044519l.936-.54c.3418351.432835.733165.8241649 1.166 1.166l-.54.936c-.1814844.3095704-.1831833.6926495-.0044519 1.0038174.1787315.311168.5104885.5027136.8693336.5019247s.6897567-.1937913.8671183-.5057421l.539-.933c.5128028.2048056 1.048279.3474874 1.595.425v1.08c0 .5522847.4477153 1 1 1s1-.4477153 1-1v-1.08c.5482102-.0755117 1.0853817-.2165192 1.6-.42l.539.933c.2780058.4742136.886647.6351286 1.3626943.3602745.4760473-.274854.640996-.8824145.3693057-1.3602745l-.54-.936c.432835-.3418351.8241649-.733165 1.166-1.166l.936.54c.47786.2716903 1.0854205.1067416 1.3602745-.3693057.2748541-.4760473.1139391-1.0846885-.3602745-1.3626943l-.933-.539c.2034808-.5146183.3444883-1.0517898.42-1.6h1.08c.5522847 0 1-.4477153 1-1s-.4477153-1-1-1h-1.08c-.0775126-.546721-.2201944-1.0821972-.425-1.595l.933-.539c.4742136-.2780058.6351286-.886647.3602745-1.3626943-.274854-.4760473-.8824145-.640996-1.3602745-.3693057zm-6.428 9.866c-2.7614237 0-5-2.2385763-5-5s2.2385763-5 5-5 5 2.2385763 5 5c-.0033061 2.7600532-2.2399468 4.9966939-5 5z"/><circle id="Oval" cx="20" cy="46" r="1"/><circle id="Oval" cx="24" cy="46" r="1"/><circle id="Oval" cx="22" cy="49" r="1"/><circle id="Oval" cx="22" cy="43" r="1"/></g></g></g></svg>